<svg xmlns="http://www.w3.org/2000/svg" viewBox="0 0 24 24" width="24" height="24">
    <g data-name="Layer 2">
        <g data-name="menu">
            <rect width="24" height="24" transform="rotate(180 12 12)" opacity="0"/>
            <rect x="3" y="11" width="18" height="2" rx=".95" ry=".95"/>
            <rect x="3" y="16" width="18" height="2" rx=".95" ry=".95"/>
            <rect x="3" y="6" width="18" height="2" rx=".95" ry=".95"/>
            <path class="st1" d="M4,11H20c0.5,0,1,0.4,1,0.9V12c0,0.5-0.4,0.9-1,0.9H4c-0.5,0-1-0.4-1-0.9v-0.1C3,11.4,3.4,11,4,11z"/>
            <path class="st1" d="M4,16H20c0.5,0,1,0.4,1,1V17c0,0.5-0.4,1-1,1H4c-0.5,0-1-0.4-1-1v-0.1C3,16.4,3.4,16,4,16z"/>
            <path class="st1" d="M4,6H20c0.5,0,1,0.4,1,0.9V7C21,7.6,20.6,8,20,8H4C3.4,8,3,7.6,3,7V6.9C3,6.4,3.4,6,4,6z"/>
        </g>
    </g>
</svg>



